# xmcd
#
# Track frame offsets: 
#        150
#        15576
#        34660
#        47125
#        66652
#        80722
#        99147
#        114511
#        124380
#        137377
#        148265
#        168352
#
# Disc length: 2389 seconds
#
# Revision: 3
# Processed by: cddbd v1.5.2PL0 Copyright (c) Steve Scherf et al.
# Submitted via: ExactAudioCopyFreeDBPlugin 1.0
#
DISCID=a609530c
DTITLE=Carl Perkins and Friends - 12 Grandes Exitos
DYEAR=1998
DGENRE=Pop
TTITLE0=Carl Perkins and Paul McCartney - My Old Friend
TTITLE1=Carl Perkins and George Harrison - Distence Makes no Difference 
TTITLE1=with Love
TTITLE2=Carl Perkins and Ringo Starr - Honey don't -Live
TTITLE3=Carl Perkins and Willie Nelson - Wild Texas Wind
TTITLE4=Carl Perkins and Paul Simon - A Mile out of Menphis
TTITLE5=Carl Perkins and Bono, Johnny Cash, Willie Nelson, Tom Petty - G
TTITLE5=ive me Back my Job
TTITLE6=Carl Perkins and Paul Simon - Rockabily Music
TTITLE7=Carl Perkins and John Fogerty - Mama's Children
TTITLE8=Carl Perkins and Johnny Cash - Two Old Army Pals
TTITLE9=Carl Perkins and Willie Nelson - Matchbox
TTITLE10=Carl Perkins and Tom Petty - Restless
TTITLE11=John Lennon - Blue Suede Shoes
EXTD=ID3G: 13
EXTT0=
EXTT1=
EXTT2=
EXTT3=
EXTT4=
EXTT5=
EXTT6=
EXTT7=
EXTT8=
EXTT9=
EXTT10=
EXTT11=
PLAYORDER=
